<svg width="16" height="16" viewBox="0 0 16 16" fill="none" xmlns="http://www.w3.org/2000/svg">
<path d="M13.7398 2.01714C12.2808 0.672379 10.4661 0 8.29879 0C6.02054 0 4.07847 0.76377 2.47586 2.29457C0.87325 3.82538 0.0703125 5.72827 0.0703125 8.00653C0.0703125 10.1901 0.834082 12.0669 2.35836 13.6401C3.88916 15.2134 5.94547 16 8.5338 16C10.094 16 11.6248 15.6801 13.1262 15.0371C13.6158 14.8282 13.8541 14.2668 13.655 13.774C13.4493 13.2648 12.8684 13.0298 12.3624 13.2452C11.0568 13.8066 9.77737 14.0873 8.53053 14.0873C6.54604 14.0873 5.00871 13.4835 3.91854 12.2725C2.83163 11.0649 2.28655 9.64504 2.28655 8.01632C2.28655 6.24725 2.8708 4.77193 4.03604 3.58711C5.19802 2.40555 6.6309 1.81151 8.32817 1.81151C9.89161 1.81151 11.2135 2.29784 12.2906 3.2705C13.3677 4.24317 13.9063 5.46716 13.9063 6.94247C13.9063 7.95104 13.6582 8.79315 13.1654 9.46226C12.6725 10.1346 12.1601 10.4676 11.628 10.4676C11.3408 10.4676 11.1972 10.3142 11.1972 10.0041C11.1972 9.75275 11.2168 9.459 11.2527 9.11954L11.8598 4.15504H9.77084L9.63702 4.64137C9.10499 4.20726 8.52074 3.98858 7.88753 3.98858C6.88223 3.98858 6.02054 4.39004 5.30573 5.18972C4.58765 5.98939 4.23188 7.02081 4.23188 8.2807C4.23188 9.51122 4.54849 10.5067 5.18496 11.2607C5.82144 12.018 6.58521 12.3933 7.47953 12.3933C8.27921 12.3933 8.96138 12.0571 9.52931 11.388C9.95689 12.031 10.5868 12.3509 11.4192 12.3509C12.6431 12.3509 13.7007 11.8188 14.5917 10.7515C15.4828 9.68747 15.93 8.40147 15.93 6.89678C15.93 4.99062 15.2021 3.36189 13.7398 2.01714ZM8.92874 9.52754C8.55991 10.0237 8.11927 10.275 7.60683 10.275C7.25758 10.275 6.97688 10.0922 6.76472 9.72664C6.5493 9.36108 6.44159 8.90738 6.44159 8.3623C6.44159 7.68992 6.59173 7.1481 6.89202 6.73684C7.1923 6.32558 7.5644 6.11669 8.0083 6.11669C8.39345 6.11669 8.73616 6.27009 9.03645 6.58017C9.33674 6.89025 9.48688 7.30151 9.48688 7.81722C9.48361 8.46022 9.29757 9.02815 8.92874 9.52754Z" fill="white"/>
</svg>
