<svg width="16" height="16" viewBox="0 0 16 16" fill="none" xmlns="http://www.w3.org/2000/svg">
<g clip-path="url(#clip0)">
<path d="M5.8335 11.7413V14.8333C5.8335 15.0493 5.97216 15.2407 6.17749 15.3087C6.22883 15.3253 6.28149 15.3333 6.33349 15.3333C6.48949 15.3333 6.64016 15.26 6.73616 15.1293L8.54482 12.668L5.8335 11.7413Z" fill="white"/>
<path d="M15.7891 0.0926037C15.6357 -0.016063 15.4344 -0.0307297 15.2677 0.0566037L0.26772 7.88994C0.0903864 7.98261 -0.0142802 8.17194 0.000386423 8.37127C0.0157198 8.57127 0.148386 8.74194 0.337053 8.80661L4.50705 10.2319L13.3877 2.6386L6.51572 10.9179L13.5044 13.3066C13.5564 13.3239 13.6111 13.3333 13.6657 13.3333C13.7564 13.3333 13.8464 13.3086 13.9257 13.2606C14.0524 13.1833 14.1384 13.0533 14.1604 12.9073L15.9937 0.573937C16.0211 0.38727 15.9424 0.201937 15.7891 0.0926037Z" fill="white"/>
</g>
<defs>
<clipPath id="clip0">
<rect width="16" height="16" fill="white"/>
</clipPath>
</defs>
</svg>
